<mxfile host="" modified="2020-05-24T15:21:41.060Z" agent="5.0 (X11; Linux x86_64) AppleWebKit/537.36 (KHTML, like Gecko) Code/1.45.0 Chrome/78.0.3904.130 Electron/7.2.4 Safari/537.36" version="13.1.3" etag="lrwgP8mNOWNbAz78NI_h" pages="2">
            <diagram id="diagramid" name="Diagram">
              <mxGraphModel><root><mxCell id="0"/><mxCell id="1" parent="0"/><mxCell id="2" value="EcrRepo" style="outlineConnect=0;fontColor=#B3B3B3;gradientColor=#aaaaaa;gradientDirection=north;fillColor=#aaaaaa;strokeColor=#ffffff;dashed=0;verticalLabelPosition=bottom;verticalAlign=top;align=center;html=1;fontSize=12;fontStyle=0;aspect=fixed;shape=mxgraph.aws4.resourceIcon;resIcon=mxgraph.aws4.ecr;" vertex="1" parent="1"><mxGeometry x="500" y="200" width="50" height="50" as="geometry"/></mxCell><mxCell id="3" value="EcsCluster" style="outlineConnect=0;fontColor=#B3B3B3;gradientColor=#F78E04;gradientDirection=north;fillColor=#D05C17;strokeColor=#ffffff;dashed=0;verticalLabelPosition=bottom;verticalAlign=top;align=center;html=1;fontSize=12;fontStyle=0;aspect=fixed;shape=mxgraph.aws4.resourceIcon;resIcon=mxgraph.aws4.ecs;" vertex="1" parent="1"><mxGeometry x="1000" y="550" width="50" height="50" as="geometry"/></mxCell><mxCell id="4" value="DefaultSecurityGroup" style="outlineConnect=0;fontColor=#B3B3B3;gradientColor=#F78E04;gradientDirection=north;fillColor=#D05C17;strokeColor=#ffffff;dashed=0;verticalLabelPosition=bottom;verticalAlign=top;align=center;html=1;fontSize=12;fontStyle=0;aspect=fixed;shape=mxgraph.aws4.resourceIcon;resIcon=mxgraph.aws4.ec2;" vertex="1" parent="1"><mxGeometry x="1000" y="650" width="50" height="50" as="geometry"/></mxCell><mxCell id="5" value="DefaultRole" style="outlineConnect=0;fontColor=#B3B3B3;gradientColor=#F54749;gradientDirection=north;fillColor=#C7131F;strokeColor=#ffffff;dashed=0;verticalLabelPosition=bottom;verticalAlign=top;align=center;html=1;fontSize=12;fontStyle=0;aspect=fixed;shape=mxgraph.aws4.resourceIcon;resIcon=mxgraph.aws4.role;" vertex="1" parent="1"><mxGeometry x="1250" y="400" width="50" height="50" as="geometry"/></mxCell><mxCell id="6" value="ApplicationLoadBalancer" style="outlineConnect=0;fontColor=#B3B3B3;gradientColor=#aaaaaa;gradientDirection=north;fillColor=#aaaaaa;strokeColor=#ffffff;dashed=0;verticalLabelPosition=bottom;verticalAlign=top;align=center;html=1;fontSize=12;fontStyle=0;aspect=fixed;shape=mxgraph.aws4.resourceIcon;resIcon=mxgraph.aws4.elasticloadbalancingv2;" vertex="1" parent="1"><mxGeometry x="250" y="375" width="50" height="50" as="geometry"/></mxCell><mxCell id="7" value="LoadBalancerAlias" style="outlineConnect=0;fontColor=#B3B3B3;gradientColor=#945DF2;gradientDirection=north;fillColor=#5A30B5;strokeColor=#ffffff;dashed=0;verticalLabelPosition=bottom;verticalAlign=top;align=center;html=1;fontSize=12;fontStyle=0;aspect=fixed;shape=mxgraph.aws4.resourceIcon;resIcon=mxgraph.aws4.route53;" vertex="1" parent="1"><mxGeometry y="325" width="50" height="50" as="geometry"/></mxCell><mxCell id="8" value="CodePipelineArtifactBucket" style="outlineConnect=0;fontColor=#B3B3B3;gradientColor=#60A337;gradientDirection=north;fillColor=#277116;strokeColor=#ffffff;dashed=0;verticalLabelPosition=bottom;verticalAlign=top;align=center;html=1;fontSize=12;fontStyle=0;aspect=fixed;shape=mxgraph.aws4.resourceIcon;resIcon=mxgraph.aws4.s3;" vertex="1" parent="1"><mxGeometry x="500" y="350" width="50" height="50" as="geometry"/></mxCell><mxCell id="9" value="CodePipelineRole" style="outlineConnect=0;fontColor=#B3B3B3;gradientColor=#F54749;gradientDirection=north;fillColor=#C7131F;strokeColor=#ffffff;dashed=0;verticalLabelPosition=bottom;verticalAlign=top;align=center;html=1;fontSize=12;fontStyle=0;aspect=fixed;shape=mxgraph.aws4.resourceIcon;resIcon=mxgraph.aws4.role;" vertex="1" parent="1"><mxGeometry x="500" y="100" width="50" height="50" as="geometry"/></mxCell><mxCell id="10" value="CodeBuildRole" style="outlineConnect=0;fontColor=#B3B3B3;gradientColor=#F54749;gradientDirection=north;fillColor=#C7131F;strokeColor=#ffffff;dashed=0;verticalLabelPosition=bottom;verticalAlign=top;align=center;html=1;fontSize=12;fontStyle=0;aspect=fixed;shape=mxgraph.aws4.resourceIcon;resIcon=mxgraph.aws4.role;" vertex="1" parent="1"><mxGeometry x="750" y="50" width="50" height="50" as="geometry"/></mxCell><mxCell id="11" value="CodePipeline" style="outlineConnect=0;fontColor=#B3B3B3;gradientColor=#aaaaaa;gradientDirection=north;fillColor=#aaaaaa;strokeColor=#ffffff;dashed=0;verticalLabelPosition=bottom;verticalAlign=top;align=center;html=1;fontSize=12;fontStyle=0;aspect=fixed;shape=mxgraph.aws4.resourceIcon;resIcon=mxgraph.aws4.codepipeline;" vertex="1" parent="1"><mxGeometry x="250" y="175" width="50" height="50" as="geometry"/></mxCell><mxCell id="12" value="CodeBuildLogGroup" style="outlineConnect=0;fontColor=#B3B3B3;gradientColor=#F34482;gradientDirection=north;fillColor=#BC1356;strokeColor=#ffffff;dashed=0;verticalLabelPosition=bottom;verticalAlign=top;align=center;html=1;fontSize=12;fontStyle=0;aspect=fixed;shape=mxgraph.aws4.resourceIcon;resIcon=mxgraph.aws4.cloudwatch;" vertex="1" parent="1"><mxGeometry x="250" width="50" height="50" as="geometry"/></mxCell><mxCell id="13" value="CodeBuild" style="outlineConnect=0;fontColor=#B3B3B3;gradientColor=#aaaaaa;gradientDirection=north;fillColor=#aaaaaa;strokeColor=#ffffff;dashed=0;verticalLabelPosition=bottom;verticalAlign=top;align=center;html=1;fontSize=12;fontStyle=0;aspect=fixed;shape=mxgraph.aws4.resourceIcon;resIcon=mxgraph.aws4.codebuild;" vertex="1" parent="1"><mxGeometry x="500" width="50" height="50" as="geometry"/></mxCell><mxCell id="14" value="NotificationRule" style="outlineConnect=0;fontColor=#B3B3B3;gradientColor=#aaaaaa;gradientDirection=north;fillColor=#aaaaaa;strokeColor=#ffffff;dashed=0;verticalLabelPosition=bottom;verticalAlign=top;align=center;html=1;fontSize=12;fontStyle=0;aspect=fixed;shape=mxgraph.aws4.resourceIcon;resIcon=mxgraph.aws4.codestarnotifications;" vertex="1" parent="1"><mxGeometry y="225" width="50" height="50" as="geometry"/></mxCell><mxCell id="15" value="TargetGroup" style="outlineConnect=0;fontColor=#B3B3B3;gradientColor=#aaaaaa;gradientDirection=north;fillColor=#aaaaaa;strokeColor=#ffffff;dashed=0;verticalLabelPosition=bottom;verticalAlign=top;align=center;html=1;fontSize=12;fontStyle=0;aspect=fixed;shape=mxgraph.aws4.resourceIcon;resIcon=mxgraph.aws4.elasticloadbalancingv2;" vertex="1" parent="1"><mxGeometry x="1000" y="850" width="50" height="50" as="geometry"/></mxCell><mxCell id="16" value="Listener" style="outlineConnect=0;fontColor=#B3B3B3;gradientColor=#aaaaaa;gradientDirection=north;fillColor=#aaaaaa;strokeColor=#ffffff;dashed=0;verticalLabelPosition=bottom;verticalAlign=top;align=center;html=1;fontSize=12;fontStyle=0;aspect=fixed;shape=mxgraph.aws4.resourceIcon;resIcon=mxgraph.aws4.elasticloadbalancingv2;" vertex="1" parent="1"><mxGeometry y="425" width="50" height="50" as="geometry"/></mxCell><mxCell id="17" value="ListenerTls" style="outlineConnect=0;fontColor=#B3B3B3;gradientColor=#aaaaaa;gradientDirection=north;fillColor=#aaaaaa;strokeColor=#ffffff;dashed=0;verticalLabelPosition=bottom;verticalAlign=top;align=center;html=1;fontSize=12;fontStyle=0;aspect=fixed;shape=mxgraph.aws4.resourceIcon;resIcon=mxgraph.aws4.elasticloadbalancingv2;" vertex="1" parent="1"><mxGeometry y="525" width="50" height="50" as="geometry"/></mxCell><mxCell id="18" value="FargateService" style="outlineConnect=0;fontColor=#B3B3B3;gradientColor=#F78E04;gradientDirection=north;fillColor=#D05C17;strokeColor=#ffffff;dashed=0;verticalLabelPosition=bottom;verticalAlign=top;align=center;html=1;fontSize=12;fontStyle=0;aspect=fixed;shape=mxgraph.aws4.resourceIcon;resIcon=mxgraph.aws4.ecs;" vertex="1" parent="1"><mxGeometry x="750" y="550" width="50" height="50" as="geometry"/></mxCell><mxCell id="19" value="FargateServiceLogGroup" style="outlineConnect=0;fontColor=#B3B3B3;gradientColor=#F34482;gradientDirection=north;fillColor=#BC1356;strokeColor=#ffffff;dashed=0;verticalLabelPosition=bottom;verticalAlign=top;align=center;html=1;fontSize=12;fontStyle=0;aspect=fixed;shape=mxgraph.aws4.resourceIcon;resIcon=mxgraph.aws4.cloudwatch;" vertex="1" parent="1"><mxGeometry x="1250" y="750" width="50" height="50" as="geometry"/></mxCell><mxCell id="20" value="FargateServiceTaskDefinition" style="outlineConnect=0;fontColor=#B3B3B3;gradientColor=#F78E04;gradientDirection=north;fillColor=#D05C17;strokeColor=#ffffff;dashed=0;verticalLabelPosition=bottom;verticalAlign=top;align=center;html=1;fontSize=12;fontStyle=0;aspect=fixed;shape=mxgraph.aws4.resourceIcon;resIcon=mxgraph.aws4.ecs;" vertex="1" parent="1"><mxGeometry x="1000" y="750" width="50" height="50" as="geometry"/></mxCell><mxCell id="21" value="AutoScalingRole" style="outlineConnect=0;fontColor=#B3B3B3;gradientColor=#F54749;gradientDirection=north;fillColor=#C7131F;strokeColor=#ffffff;dashed=0;verticalLabelPosition=bottom;verticalAlign=top;align=center;html=1;fontSize=12;fontStyle=0;aspect=fixed;shape=mxgraph.aws4.resourceIcon;resIcon=mxgraph.aws4.role;" vertex="1" parent="1"><mxGeometry x="750" y="700" width="50" height="50" as="geometry"/></mxCell><mxCell id="22" value="AutoScalingTarget" style="outlineConnect=0;fontColor=#B3B3B3;gradientColor=#aaaaaa;gradientDirection=north;fillColor=#aaaaaa;strokeColor=#ffffff;dashed=0;verticalLabelPosition=bottom;verticalAlign=top;align=center;html=1;fontSize=12;fontStyle=0;aspect=fixed;shape=mxgraph.aws4.resourceIcon;resIcon=mxgraph.aws4.applicationautoscaling;" vertex="1" parent="1"><mxGeometry x="500" y="600" width="50" height="50" as="geometry"/></mxCell><mxCell id="23" value="ScaleUpPolicy" style="outlineConnect=0;fontColor=#B3B3B3;gradientColor=#aaaaaa;gradientDirection=north;fillColor=#aaaaaa;strokeColor=#ffffff;dashed=0;verticalLabelPosition=bottom;verticalAlign=top;align=center;html=1;fontSize=12;fontStyle=0;aspect=fixed;shape=mxgraph.aws4.resourceIcon;resIcon=mxgraph.aws4.applicationautoscaling;" vertex="1" parent="1"><mxGeometry x="250" y="475" width="50" height="50" as="geometry"/></mxCell><mxCell id="24" value="ScaleDownPolicy" style="outlineConnect=0;fontColor=#B3B3B3;gradientColor=#aaaaaa;gradientDirection=north;fillColor=#aaaaaa;strokeColor=#ffffff;dashed=0;verticalLabelPosition=bottom;verticalAlign=top;align=center;html=1;fontSize=12;fontStyle=0;aspect=fixed;shape=mxgraph.aws4.resourceIcon;resIcon=mxgraph.aws4.applicationautoscaling;" vertex="1" parent="1"><mxGeometry x="250" y="575" width="50" height="50" as="geometry"/></mxCell><mxCell id="25" value="AlarmHighRequests" style="outlineConnect=0;fontColor=#B3B3B3;gradientColor=#F34482;gradientDirection=north;fillColor=#BC1356;strokeColor=#ffffff;dashed=0;verticalLabelPosition=bottom;verticalAlign=top;align=center;html=1;fontSize=12;fontStyle=0;aspect=fixed;shape=mxgraph.aws4.resourceIcon;resIcon=mxgraph.aws4.cloudwatch;" vertex="1" parent="1"><mxGeometry y="662.5" width="50" height="50" as="geometry"/></mxCell><mxCell id="26" value="iam  aws&#xA;policy/service-role/amazonecstaskexecutionrolepolicy" style="outlineConnect=0;fontColor=#B3B3B3;gradientColor=#aaaaaa;gradientDirection=north;fillColor=#aaaaaa;strokeColor=#ffffff;dashed=0;verticalLabelPosition=bottom;verticalAlign=top;align=center;html=1;fontSize=12;fontStyle=0;aspect=fixed;shape=mxgraph.aws4.resourceIcon;resIcon=mxgraph.aws4.identity_and_access_management;" vertex="1" parent="1"><mxGeometry x="1500" y="462.5" width="50" height="50" as="geometry"/></mxCell><mxCell id="27" value="iam  aws&#xA;policy/amazonecs_fullaccess" style="outlineConnect=0;fontColor=#B3B3B3;gradientColor=#aaaaaa;gradientDirection=north;fillColor=#aaaaaa;strokeColor=#ffffff;dashed=0;verticalLabelPosition=bottom;verticalAlign=top;align=center;html=1;fontSize=12;fontStyle=0;aspect=fixed;shape=mxgraph.aws4.resourceIcon;resIcon=mxgraph.aws4.identity_and_access_management;" vertex="1" parent="1"><mxGeometry x="1500" y="362.5" width="50" height="50" as="geometry"/></mxCell><mxCell id="28" value="iam  aws&#xA;policy/awscodepipeline_fullaccess" style="outlineConnect=0;fontColor=#B3B3B3;gradientColor=#aaaaaa;gradientDirection=north;fillColor=#aaaaaa;strokeColor=#ffffff;dashed=0;verticalLabelPosition=bottom;verticalAlign=top;align=center;html=1;fontSize=12;fontStyle=0;aspect=fixed;shape=mxgraph.aws4.resourceIcon;resIcon=mxgraph.aws4.identity_and_access_management;" vertex="1" parent="1"><mxGeometry x="750" y="150" width="50" height="50" as="geometry"/></mxCell><mxCell id="29" value="iam  aws&#xA;policy/amazons3fullaccess" style="outlineConnect=0;fontColor=#B3B3B3;gradientColor=#aaaaaa;gradientDirection=north;fillColor=#aaaaaa;strokeColor=#ffffff;dashed=0;verticalLabelPosition=bottom;verticalAlign=top;align=center;html=1;fontSize=12;fontStyle=0;aspect=fixed;shape=mxgraph.aws4.resourceIcon;resIcon=mxgraph.aws4.identity_and_access_management;" vertex="1" parent="1"><mxGeometry x="1000" y="300" width="50" height="50" as="geometry"/></mxCell><mxCell id="30" value="iam  aws&#xA;policy/awscodebuildadminaccess" style="outlineConnect=0;fontColor=#B3B3B3;gradientColor=#aaaaaa;gradientDirection=north;fillColor=#aaaaaa;strokeColor=#ffffff;dashed=0;verticalLabelPosition=bottom;verticalAlign=top;align=center;html=1;fontSize=12;fontStyle=0;aspect=fixed;shape=mxgraph.aws4.resourceIcon;resIcon=mxgraph.aws4.identity_and_access_management;" vertex="1" parent="1"><mxGeometry x="1000" y="400" width="50" height="50" as="geometry"/></mxCell><mxCell id="31" value="iam  aws&#xA;policy/cloudwatchlogsfullaccess" style="outlineConnect=0;fontColor=#B3B3B3;gradientColor=#aaaaaa;gradientDirection=north;fillColor=#aaaaaa;strokeColor=#ffffff;dashed=0;verticalLabelPosition=bottom;verticalAlign=top;align=center;html=1;fontSize=12;fontStyle=0;aspect=fixed;shape=mxgraph.aws4.resourceIcon;resIcon=mxgraph.aws4.identity_and_access_management;" vertex="1" parent="1"><mxGeometry x="1000" y="200" width="50" height="50" as="geometry"/></mxCell><mxCell id="32" value="iam  aws&#xA;policy/iamfullaccess" style="outlineConnect=0;fontColor=#B3B3B3;gradientColor=#aaaaaa;gradientDirection=north;fillColor=#aaaaaa;strokeColor=#ffffff;dashed=0;verticalLabelPosition=bottom;verticalAlign=top;align=center;html=1;fontSize=12;fontStyle=0;aspect=fixed;shape=mxgraph.aws4.resourceIcon;resIcon=mxgraph.aws4.identity_and_access_management;" vertex="1" parent="1"><mxGeometry x="1000" width="50" height="50" as="geometry"/></mxCell><mxCell id="33" value="iam  aws&#xA;policy/amazonec2containerregistrypoweruser" style="outlineConnect=0;fontColor=#B3B3B3;gradientColor=#aaaaaa;gradientDirection=north;fillColor=#aaaaaa;strokeColor=#ffffff;dashed=0;verticalLabelPosition=bottom;verticalAlign=top;align=center;html=1;fontSize=12;fontStyle=0;aspect=fixed;shape=mxgraph.aws4.resourceIcon;resIcon=mxgraph.aws4.identity_and_access_management;" vertex="1" parent="1"><mxGeometry x="1000" y="100" width="50" height="50" as="geometry"/></mxCell><mxCell id="34" value="codepipeline  &#xA;${codepipeline}" style="outlineConnect=0;fontColor=#B3B3B3;gradientColor=#aaaaaa;gradientDirection=north;fillColor=#aaaaaa;strokeColor=#ffffff;dashed=0;verticalLabelPosition=bottom;verticalAlign=top;align=center;html=1;fontSize=12;fontStyle=0;aspect=fixed;shape=mxgraph.aws4.resourceIcon;resIcon=mxgraph.aws4.codepipeline;" vertex="1" parent="1"><mxGeometry x="250" y="275" width="50" height="50" as="geometry"/></mxCell><mxCell id="iam  aws&#xA;policy/service-role/amazonecstaskexecutionrolepolicy|DefaultRole" value="ManagedPolicyArns" style="edgeStyle=orthogonalEdgeStyle;rounded=1;orthogonalLoop=1;jettySize=auto;html=1;labelBackgroundColor=none;fontColor=#EA6B66;noEdgeStyle=1;orthogonal=1;" edge="1" parent="1" source="5" target="26"><mxGeometry relative="1" as="geometry"><Array as="points"><mxPoint x="1312" y="435"/><mxPoint x="1488" y="487.5"/></Array></mxGeometry></mxCell><mxCell id="iam  aws&#xA;policy/amazonecs_fullaccess|DefaultRole" value="ManagedPolicyArns" style="edgeStyle=orthogonalEdgeStyle;rounded=1;orthogonalLoop=1;jettySize=auto;html=1;labelBackgroundColor=none;fontColor=#EA6B66;noEdgeStyle=1;orthogonal=1;" edge="1" parent="1" source="5" target="27"><mxGeometry relative="1" as="geometry"><Array as="points"><mxPoint x="1312" y="415"/><mxPoint x="1488" y="397.5"/></Array></mxGeometry></mxCell><mxCell id="DefaultSecurityGroup|ApplicationLoadBalancer" value="SecurityGroups" style="edgeStyle=orthogonalEdgeStyle;rounded=1;orthogonalLoop=1;jettySize=auto;html=1;labelBackgroundColor=none;fontColor=#EA6B66;noEdgeStyle=1;orthogonal=1;" edge="1" parent="1" source="6" target="4"><mxGeometry relative="1" as="geometry"><Array as="points"><mxPoint x="312" y="400"/><mxPoint x="400" y="500"/><mxPoint x="650" y="500"/><mxPoint x="650" y="450"/><mxPoint x="900" y="450"/><mxPoint x="988" y="665"/></Array></mxGeometry></mxCell><mxCell id="ApplicationLoadBalancer|LoadBalancerAlias" value="DNSName&#xA;HostedZoneId" style="edgeStyle=orthogonalEdgeStyle;rounded=1;orthogonalLoop=1;jettySize=auto;html=1;labelBackgroundColor=none;fontColor=#EA6B66;noEdgeStyle=1;orthogonal=1;" edge="1" parent="1" source="7" target="6"><mxGeometry relative="1" as="geometry"><Array as="points"><mxPoint x="62" y="350"/><mxPoint x="238" y="386.6666666666667"/></Array></mxGeometry></mxCell><mxCell id="iam  aws&#xA;policy/awscodepipeline_fullaccess|CodePipelineRole" value="ManagedPolicyArns" style="edgeStyle=orthogonalEdgeStyle;rounded=1;orthogonalLoop=1;jettySize=auto;html=1;labelBackgroundColor=none;fontColor=#EA6B66;noEdgeStyle=1;orthogonal=1;" edge="1" parent="1" source="9" target="28"><mxGeometry relative="1" as="geometry"><Array as="points"><mxPoint x="562" y="110"/><mxPoint x="738" y="175"/></Array></mxGeometry></mxCell><mxCell id="iam  aws&#xA;policy/amazons3fullaccess|CodePipelineRole" value="ManagedPolicyArns" style="edgeStyle=orthogonalEdgeStyle;rounded=1;orthogonalLoop=1;jettySize=auto;html=1;labelBackgroundColor=none;fontColor=#EA6B66;noEdgeStyle=1;orthogonal=1;" edge="1" parent="1" source="9" target="29"><mxGeometry relative="1" as="geometry"><Array as="points"><mxPoint x="564" y="120"/><mxPoint x="650" y="250"/><mxPoint x="900" y="250"/><mxPoint x="988" y="335"/></Array></mxGeometry></mxCell><mxCell id="iam  aws&#xA;policy/awscodebuildadminaccess|CodePipelineRole" value="ManagedPolicyArns" style="edgeStyle=orthogonalEdgeStyle;rounded=1;orthogonalLoop=1;jettySize=auto;html=1;labelBackgroundColor=none;fontColor=#EA6B66;noEdgeStyle=1;orthogonal=1;" edge="1" parent="1" source="9" target="30"><mxGeometry relative="1" as="geometry"><Array as="points"><mxPoint x="564" y="130"/><mxPoint x="650" y="300"/><mxPoint x="900" y="300"/><mxPoint x="988" y="435"/></Array></mxGeometry></mxCell><mxCell id="iam  aws&#xA;policy/amazonecs_fullaccess|CodePipelineRole" value="ManagedPolicyArns" style="edgeStyle=orthogonalEdgeStyle;rounded=1;orthogonalLoop=1;jettySize=auto;html=1;labelBackgroundColor=none;fontColor=#EA6B66;noEdgeStyle=1;orthogonal=1;" edge="1" parent="1" source="9" target="27"><mxGeometry relative="1" as="geometry"><Array as="points"><mxPoint x="562" y="140"/><mxPoint x="650" y="350"/><mxPoint x="900" y="350"/><mxPoint x="900" y="500"/><mxPoint x="1150" y="500"/><mxPoint x="1150" y="350"/><mxPoint x="1400" y="350"/><mxPoint x="1488" y="377.5"/></Array></mxGeometry></mxCell><mxCell id="iam  aws&#xA;policy/awscodebuildadminaccess|CodeBuildRole" value="ManagedPolicyArns" style="edgeStyle=orthogonalEdgeStyle;rounded=1;orthogonalLoop=1;jettySize=auto;html=1;labelBackgroundColor=none;fontColor=#EA6B66;noEdgeStyle=1;orthogonal=1;" edge="1" parent="1" source="10" target="30"><mxGeometry relative="1" as="geometry"><Array as="points"><mxPoint x="812" y="91"/><mxPoint x="988" y="415"/></Array></mxGeometry></mxCell><mxCell id="iam  aws&#xA;policy/cloudwatchlogsfullaccess|CodeBuildRole" value="ManagedPolicyArns" style="edgeStyle=orthogonalEdgeStyle;rounded=1;orthogonalLoop=1;jettySize=auto;html=1;labelBackgroundColor=none;fontColor=#EA6B66;noEdgeStyle=1;orthogonal=1;" edge="1" parent="1" source="10" target="31"><mxGeometry relative="1" as="geometry"><Array as="points"><mxPoint x="816" y="75"/><mxPoint x="988" y="225"/></Array></mxGeometry></mxCell><mxCell id="iam  aws&#xA;policy/amazons3fullaccess|CodeBuildRole" value="ManagedPolicyArns" style="edgeStyle=orthogonalEdgeStyle;rounded=1;orthogonalLoop=1;jettySize=auto;html=1;labelBackgroundColor=none;fontColor=#EA6B66;noEdgeStyle=1;orthogonal=1;" edge="1" parent="1" source="10" target="29"><mxGeometry relative="1" as="geometry"><Array as="points"><mxPoint x="814" y="83"/><mxPoint x="988" y="315"/></Array></mxGeometry></mxCell><mxCell id="iam  aws&#xA;policy/iamfullaccess|CodeBuildRole" value="ManagedPolicyArns" style="edgeStyle=orthogonalEdgeStyle;rounded=1;orthogonalLoop=1;jettySize=auto;html=1;labelBackgroundColor=none;fontColor=#EA6B66;noEdgeStyle=1;orthogonal=1;" edge="1" parent="1" source="10" target="32"><mxGeometry relative="1" as="geometry"><Array as="points"><mxPoint x="812" y="59"/><mxPoint x="988" y="25"/></Array></mxGeometry></mxCell><mxCell id="iam  aws&#xA;policy/amazonec2containerregistrypoweruser|CodeBuildRole" value="ManagedPolicyArns" style="edgeStyle=orthogonalEdgeStyle;rounded=1;orthogonalLoop=1;jettySize=auto;html=1;labelBackgroundColor=none;fontColor=#EA6B66;noEdgeStyle=1;orthogonal=1;" edge="1" parent="1" source="10" target="33"><mxGeometry relative="1" as="geometry"><Array as="points"><mxPoint x="814" y="67"/><mxPoint x="988" y="125"/></Array></mxGeometry></mxCell><mxCell id="CodePipelineArtifactBucket|CodePipeline" value="Location" style="edgeStyle=orthogonalEdgeStyle;rounded=1;orthogonalLoop=1;jettySize=auto;html=1;labelBackgroundColor=none;fontColor=#EA6B66;noEdgeStyle=1;orthogonal=1;" edge="1" parent="1" source="11" target="8"><mxGeometry relative="1" as="geometry"><Array as="points"><mxPoint x="314" y="209.99999999999997"/><mxPoint x="488" y="375"/></Array></mxGeometry></mxCell><mxCell id="CodeBuild|CodePipeline" value="ProjectName" style="edgeStyle=orthogonalEdgeStyle;rounded=1;orthogonalLoop=1;jettySize=auto;html=1;labelBackgroundColor=none;fontColor=#EA6B66;noEdgeStyle=1;orthogonal=1;" edge="1" parent="1" source="11" target="13"><mxGeometry relative="1" as="geometry"><Array as="points"><mxPoint x="312" y="183.33333333333334"/><mxPoint x="488" y="35"/></Array></mxGeometry></mxCell><mxCell id="EcsCluster|CodePipeline" value="ClusterName" style="edgeStyle=orthogonalEdgeStyle;rounded=1;orthogonalLoop=1;jettySize=auto;html=1;labelBackgroundColor=none;fontColor=#EA6B66;noEdgeStyle=1;orthogonal=1;" edge="1" parent="1" source="11" target="3"><mxGeometry relative="1" as="geometry"><Array as="points"><mxPoint x="316" y="203.33333333333331"/><mxPoint x="400" y="300"/><mxPoint x="650" y="300"/><mxPoint x="650" y="400"/><mxPoint x="900" y="400"/><mxPoint x="988" y="561.6666666666666"/></Array></mxGeometry></mxCell><mxCell id="EcrRepo|CodePipeline" value="EnvironmentVariables" style="edgeStyle=orthogonalEdgeStyle;rounded=1;orthogonalLoop=1;jettySize=auto;html=1;labelBackgroundColor=none;fontColor=#EA6B66;noEdgeStyle=1;orthogonal=1;" edge="1" parent="1" source="11" target="2"><mxGeometry relative="1" as="geometry"><Array as="points"><mxPoint x="316" y="196.66666666666666"/><mxPoint x="488" y="225"/></Array></mxGeometry></mxCell><mxCell id="CodePipelineRole|CodePipeline" value="RoleArn" style="edgeStyle=orthogonalEdgeStyle;rounded=1;orthogonalLoop=1;jettySize=auto;html=1;labelBackgroundColor=none;fontColor=#EA6B66;noEdgeStyle=1;orthogonal=1;" edge="1" parent="1" source="11" target="9"><mxGeometry relative="1" as="geometry"><Array as="points"><mxPoint x="314" y="190"/><mxPoint x="488" y="125"/></Array></mxGeometry></mxCell><mxCell id="FargateService|CodePipeline" value="ServiceName" style="edgeStyle=orthogonalEdgeStyle;rounded=1;orthogonalLoop=1;jettySize=auto;html=1;labelBackgroundColor=none;fontColor=#EA6B66;noEdgeStyle=1;orthogonal=1;" edge="1" parent="1" source="11" target="18"><mxGeometry relative="1" as="geometry"><Array as="points"><mxPoint x="312" y="216.66666666666663"/><mxPoint x="400" y="450"/><mxPoint x="650" y="450"/><mxPoint x="738" y="559"/></Array></mxGeometry></mxCell><mxCell id="CodeBuild|CodeBuildLogGroup" value="LogGroupName" style="edgeStyle=orthogonalEdgeStyle;rounded=1;orthogonalLoop=1;jettySize=auto;html=1;labelBackgroundColor=none;fontColor=#EA6B66;noEdgeStyle=1;orthogonal=1;" edge="1" parent="1" source="12" target="13"><mxGeometry relative="1" as="geometry"><Array as="points"><mxPoint x="312" y="25"/><mxPoint x="488" y="15"/></Array></mxGeometry></mxCell><mxCell id="CodeBuildRole|CodeBuild" value="ServiceRole" style="edgeStyle=orthogonalEdgeStyle;rounded=1;orthogonalLoop=1;jettySize=auto;html=1;labelBackgroundColor=none;fontColor=#EA6B66;noEdgeStyle=1;orthogonal=1;" edge="1" parent="1" source="13" target="10"><mxGeometry relative="1" as="geometry"><Array as="points"><mxPoint x="562" y="25"/><mxPoint x="738" y="75"/></Array></mxGeometry></mxCell><mxCell id="codepipeline  &#xA;${codepipeline}|NotificationRule" value="Resource" style="edgeStyle=orthogonalEdgeStyle;rounded=1;orthogonalLoop=1;jettySize=auto;html=1;labelBackgroundColor=none;fontColor=#EA6B66;noEdgeStyle=1;orthogonal=1;" edge="1" parent="1" source="14" target="34"><mxGeometry relative="1" as="geometry"><Array as="points"><mxPoint x="62" y="260"/><mxPoint x="238" y="300"/></Array></mxGeometry></mxCell><mxCell id="CodePipeline|NotificationRule" value="Resource" style="edgeStyle=orthogonalEdgeStyle;rounded=1;orthogonalLoop=1;jettySize=auto;html=1;labelBackgroundColor=none;fontColor=#EA6B66;noEdgeStyle=1;orthogonal=1;" edge="1" parent="1" source="14" target="11"><mxGeometry relative="1" as="geometry"><Array as="points"><mxPoint x="62" y="240"/><mxPoint x="238" y="200"/></Array></mxGeometry></mxCell><mxCell id="TargetGroup|Listener" value="TargetGroupArn" style="edgeStyle=orthogonalEdgeStyle;rounded=1;orthogonalLoop=1;jettySize=auto;html=1;labelBackgroundColor=none;fontColor=#EA6B66;noEdgeStyle=1;orthogonal=1;" edge="1" parent="1" source="16" target="15"><mxGeometry relative="1" as="geometry"><Array as="points"><mxPoint x="62" y="460"/><mxPoint x="150" y="675"/><mxPoint x="400" y="675"/><mxPoint x="400" y="800"/><mxPoint x="650" y="800"/><mxPoint x="650" y="650"/><mxPoint x="900" y="650"/><mxPoint x="986" y="870"/></Array></mxGeometry></mxCell><mxCell id="ApplicationLoadBalancer|Listener" value="LoadBalancerArn" style="edgeStyle=orthogonalEdgeStyle;rounded=1;orthogonalLoop=1;jettySize=auto;html=1;labelBackgroundColor=none;fontColor=#EA6B66;noEdgeStyle=1;orthogonal=1;" edge="1" parent="1" source="16" target="6"><mxGeometry relative="1" as="geometry"><Array as="points"><mxPoint x="62" y="440"/><mxPoint x="236" y="400"/></Array></mxGeometry></mxCell><mxCell id="TargetGroup|ListenerTls" value="TargetGroupArn" style="edgeStyle=orthogonalEdgeStyle;rounded=1;orthogonalLoop=1;jettySize=auto;html=1;labelBackgroundColor=none;fontColor=#EA6B66;noEdgeStyle=1;orthogonal=1;" edge="1" parent="1" source="17" target="15"><mxGeometry relative="1" as="geometry"><Array as="points"><mxPoint x="62" y="560"/><mxPoint x="150" y="725"/><mxPoint x="400" y="725"/><mxPoint x="400" y="850"/><mxPoint x="650" y="850"/><mxPoint x="650" y="850"/><mxPoint x="900" y="850"/><mxPoint x="986" y="880"/></Array></mxGeometry></mxCell><mxCell id="ApplicationLoadBalancer|ListenerTls" value="LoadBalancerArn" style="edgeStyle=orthogonalEdgeStyle;rounded=1;orthogonalLoop=1;jettySize=auto;html=1;labelBackgroundColor=none;fontColor=#EA6B66;noEdgeStyle=1;orthogonal=1;" edge="1" parent="1" source="17" target="6"><mxGeometry relative="1" as="geometry"><Array as="points"><mxPoint x="62" y="540"/><mxPoint x="238" y="413.3333333333333"/></Array></mxGeometry></mxCell><mxCell id="EcsCluster|FargateService" value="Cluster" style="edgeStyle=orthogonalEdgeStyle;rounded=1;orthogonalLoop=1;jettySize=auto;html=1;labelBackgroundColor=none;fontColor=#EA6B66;noEdgeStyle=1;orthogonal=1;" edge="1" parent="1" source="18" target="3"><mxGeometry relative="1" as="geometry"><Array as="points"><mxPoint x="812" y="560"/><mxPoint x="988" y="588.3333333333334"/></Array></mxGeometry></mxCell><mxCell id="TargetGroup|FargateService" value="TargetGroupArn" style="edgeStyle=orthogonalEdgeStyle;rounded=1;orthogonalLoop=1;jettySize=auto;html=1;labelBackgroundColor=none;fontColor=#EA6B66;noEdgeStyle=1;orthogonal=1;" edge="1" parent="1" source="18" target="15"><mxGeometry relative="1" as="geometry"><Array as="points"><mxPoint x="812" y="590"/><mxPoint x="988" y="860"/></Array></mxGeometry></mxCell><mxCell id="DefaultSecurityGroup|FargateService" value="SecurityGroups" style="edgeStyle=orthogonalEdgeStyle;rounded=1;orthogonalLoop=1;jettySize=auto;html=1;labelBackgroundColor=none;fontColor=#EA6B66;noEdgeStyle=1;orthogonal=1;" edge="1" parent="1" source="18" target="4"><mxGeometry relative="1" as="geometry"><Array as="points"><mxPoint x="814" y="570"/><mxPoint x="988" y="685"/></Array></mxGeometry></mxCell><mxCell id="FargateServiceTaskDefinition|FargateService" value="TaskDefinition" style="edgeStyle=orthogonalEdgeStyle;rounded=1;orthogonalLoop=1;jettySize=auto;html=1;labelBackgroundColor=none;fontColor=#EA6B66;noEdgeStyle=1;orthogonal=1;" edge="1" parent="1" source="18" target="20"><mxGeometry relative="1" as="geometry"><Array as="points"><mxPoint x="814" y="580"/><mxPoint x="988" y="775"/></Array></mxGeometry></mxCell><mxCell id="FargateServiceLogGroup|FargateServiceTaskDefinition" value="awslogs-group" style="edgeStyle=orthogonalEdgeStyle;rounded=1;orthogonalLoop=1;jettySize=auto;html=1;labelBackgroundColor=none;fontColor=#EA6B66;noEdgeStyle=1;orthogonal=1;" edge="1" parent="1" source="20" target="19"><mxGeometry relative="1" as="geometry"><Array as="points"><mxPoint x="1062" y="785"/><mxPoint x="1238" y="775"/></Array></mxGeometry></mxCell><mxCell id="DefaultRole|FargateServiceTaskDefinition" value="ExecutionRoleArn&#xA;TaskRoleArn" style="edgeStyle=orthogonalEdgeStyle;rounded=1;orthogonalLoop=1;jettySize=auto;html=1;labelBackgroundColor=none;fontColor=#EA6B66;noEdgeStyle=1;orthogonal=1;" edge="1" parent="1" source="20" target="5"><mxGeometry relative="1" as="geometry"><Array as="points"><mxPoint x="1062" y="765"/><mxPoint x="1238" y="425"/></Array></mxGeometry></mxCell><mxCell id="EcsCluster|AutoScalingTarget" value="ResourceId" style="edgeStyle=orthogonalEdgeStyle;rounded=1;orthogonalLoop=1;jettySize=auto;html=1;labelBackgroundColor=none;fontColor=#EA6B66;noEdgeStyle=1;orthogonal=1;" edge="1" parent="1" source="22" target="3"><mxGeometry relative="1" as="geometry"><Array as="points"><mxPoint x="562" y="611.6666666666666"/><mxPoint x="650" y="500"/><mxPoint x="900" y="500"/><mxPoint x="986" y="575"/></Array></mxGeometry></mxCell><mxCell id="FargateService|AutoScalingTarget" value="ResourceId" style="edgeStyle=orthogonalEdgeStyle;rounded=1;orthogonalLoop=1;jettySize=auto;html=1;labelBackgroundColor=none;fontColor=#EA6B66;noEdgeStyle=1;orthogonal=1;" edge="1" parent="1" source="22" target="18"><mxGeometry relative="1" as="geometry"><Array as="points"><mxPoint x="564" y="625"/><mxPoint x="734" y="575"/></Array></mxGeometry></mxCell><mxCell id="AutoScalingRole|AutoScalingTarget" value="RoleARN" style="edgeStyle=orthogonalEdgeStyle;rounded=1;orthogonalLoop=1;jettySize=auto;html=1;labelBackgroundColor=none;fontColor=#EA6B66;noEdgeStyle=1;orthogonal=1;" edge="1" parent="1" source="22" target="21"><mxGeometry relative="1" as="geometry"><Array as="points"><mxPoint x="562" y="638.3333333333334"/><mxPoint x="738" y="725"/></Array></mxGeometry></mxCell><mxCell id="AutoScalingTarget|ScaleUpPolicy" value="ScalingTargetId" style="edgeStyle=orthogonalEdgeStyle;rounded=1;orthogonalLoop=1;jettySize=auto;html=1;labelBackgroundColor=none;fontColor=#EA6B66;noEdgeStyle=1;orthogonal=1;" edge="1" parent="1" source="23" target="22"><mxGeometry relative="1" as="geometry"><Array as="points"><mxPoint x="312" y="510"/><mxPoint x="488" y="615"/></Array></mxGeometry></mxCell><mxCell id="FargateService|ScaleUpPolicy" value="PolicyName" style="edgeStyle=orthogonalEdgeStyle;rounded=1;orthogonalLoop=1;jettySize=auto;html=1;labelBackgroundColor=none;fontColor=#EA6B66;noEdgeStyle=1;orthogonal=1;" edge="1" parent="1" source="23" target="18"><mxGeometry relative="1" as="geometry"><Array as="points"><mxPoint x="312" y="490"/><mxPoint x="400" y="550"/><mxPoint x="650" y="550"/><mxPoint x="736" y="567"/></Array></mxGeometry></mxCell><mxCell id="AutoScalingTarget|ScaleDownPolicy" value="ScalingTargetId" style="edgeStyle=orthogonalEdgeStyle;rounded=1;orthogonalLoop=1;jettySize=auto;html=1;labelBackgroundColor=none;fontColor=#EA6B66;noEdgeStyle=1;orthogonal=1;" edge="1" parent="1" source="24" target="22"><mxGeometry relative="1" as="geometry"><Array as="points"><mxPoint x="312" y="590"/><mxPoint x="488" y="635"/></Array></mxGeometry></mxCell><mxCell id="FargateService|ScaleDownPolicy" value="PolicyName" style="edgeStyle=orthogonalEdgeStyle;rounded=1;orthogonalLoop=1;jettySize=auto;html=1;labelBackgroundColor=none;fontColor=#EA6B66;noEdgeStyle=1;orthogonal=1;" edge="1" parent="1" source="24" target="18"><mxGeometry relative="1" as="geometry"><Array as="points"><mxPoint x="312" y="610"/><mxPoint x="400" y="700"/><mxPoint x="650" y="700"/><mxPoint x="736" y="583"/></Array></mxGeometry></mxCell><mxCell id="ScaleUpPolicy|AlarmHighRequests" value="AlarmActions" style="edgeStyle=orthogonalEdgeStyle;rounded=1;orthogonalLoop=1;jettySize=auto;html=1;labelBackgroundColor=none;fontColor=#EA6B66;noEdgeStyle=1;orthogonal=1;" edge="1" parent="1" source="25" target="23"><mxGeometry relative="1" as="geometry"><Array as="points"><mxPoint x="62" y="672.5"/><mxPoint x="238" y="500"/></Array></mxGeometry></mxCell><mxCell id="ScaleDownPolicy|AlarmHighRequests" value="OKActions" style="edgeStyle=orthogonalEdgeStyle;rounded=1;orthogonalLoop=1;jettySize=auto;html=1;labelBackgroundColor=none;fontColor=#EA6B66;noEdgeStyle=1;orthogonal=1;" edge="1" parent="1" source="25" target="24"><mxGeometry relative="1" as="geometry"><Array as="points"><mxPoint x="64" y="682.5"/><mxPoint x="238" y="600"/></Array></mxGeometry></mxCell><mxCell id="FargateService|AlarmHighRequests" value="AlarmDescription" style="edgeStyle=orthogonalEdgeStyle;rounded=1;orthogonalLoop=1;jettySize=auto;html=1;labelBackgroundColor=none;fontColor=#EA6B66;noEdgeStyle=1;orthogonal=1;" edge="1" parent="1" source="25" target="18"><mxGeometry relative="1" as="geometry"><Array as="points"><mxPoint x="64" y="692.5"/><mxPoint x="150" y="775"/><mxPoint x="400" y="775"/><mxPoint x="400" y="750"/><mxPoint x="650" y="750"/><mxPoint x="738" y="591"/></Array></mxGeometry></mxCell><mxCell id="TargetGroup|AlarmHighRequests" value="Value" style="edgeStyle=orthogonalEdgeStyle;rounded=1;orthogonalLoop=1;jettySize=auto;html=1;labelBackgroundColor=none;fontColor=#EA6B66;noEdgeStyle=1;orthogonal=1;" edge="1" parent="1" source="25" target="15"><mxGeometry relative="1" as="geometry"><Array as="points"><mxPoint x="62" y="702.5"/><mxPoint x="150" y="900"/><mxPoint x="400" y="900"/><mxPoint x="400" y="900"/><mxPoint x="650" y="900"/><mxPoint x="650" y="900"/><mxPoint x="900" y="900"/><mxPoint x="988" y="890"/></Array></mxGeometry></mxCell></root></mxGraphModel>
            </diagram>
          </mxfile>